<svg width="737" height="473" viewBox="0 0 737 473" fill="none" xmlns="http://www.w3.org/2000/svg">
<g clip-path="url(#clip0_116_3495)">
<rect width="737" height="473" fill="#E5E5E5"/>
<path d="M326.03 58.9796C326.03 51.8112 331.854 46 339.039 46H391.077C398.261 46 404.086 51.8112 404.086 58.9796V669.02C404.086 676.188 398.261 682 391.077 682H339.039C331.854 682 326.03 676.188 326.03 669.02V58.9796Z" fill="white"/>
<mask id="mask0_116_3495" style="mask-type:luminance" maskUnits="userSpaceOnUse" x="326" y="46" width="79" height="636">
<path d="M326.03 58.9796C326.03 51.8112 331.854 46 339.039 46H391.077C398.261 46 404.086 51.8112 404.086 58.9796V669.02C404.086 676.188 398.261 682 391.077 682H339.039C331.854 682 326.03 676.188 326.03 669.02V58.9796Z" fill="white"/>
</mask>
<g mask="url(#mask0_116_3495)">
<path d="M391.077 46C399.16 46 405.712 52.5376 405.712 60.602V667.398C405.712 675.463 399.16 682 391.077 682C397.363 682 402.46 676.188 402.46 669.02V58.9796C402.46 51.8112 397.363 46 391.077 46Z" fill="white"/>
</g>
<path d="M326.03 58.9796C326.03 51.8112 331.854 46 339.039 46H391.077C398.261 46 404.086 51.8112 404.086 58.9796V123.878H326.03V58.9796Z" fill="white"/>
<path d="M346.836 91.1007L348.867 78.835H351.234L353.252 91.1007H351.273L350.898 88.4053H349.242L348.841 91.1007H346.836ZM349.436 86.8758H350.691L350.057 81.9241L349.436 86.8758Z" fill="#1F1F1F"/>
<path d="M354.443 91.1007V78.835H357.095C357.552 78.835 357.975 78.8804 358.363 78.9712C358.751 79.0621 359.091 79.2237 359.385 79.4559C359.687 79.688 359.915 80.0111 360.07 80.425C360.234 80.8288 360.316 81.3588 360.316 82.015C360.316 82.5096 360.256 82.9336 360.135 83.287C360.014 83.6303 359.842 83.9028 359.618 84.1047C359.393 84.3067 359.117 84.443 358.79 84.5135C359.195 84.5843 359.536 84.7457 359.812 84.9982C360.088 85.2504 360.294 85.5837 360.433 85.9976C360.57 86.4115 360.64 86.9112 360.64 87.4967C360.64 88.1124 360.57 88.6475 360.433 89.1018C360.303 89.5561 360.109 89.9296 359.85 90.2224C359.592 90.5151 359.273 90.7372 358.893 90.8888C358.514 91.0301 358.074 91.1007 357.574 91.1007H354.443ZM356.578 89.3442H357.173C357.707 89.3442 358.074 89.1876 358.272 88.8747C358.479 88.5617 358.583 88.0923 358.583 87.4664C358.583 86.9819 358.535 86.5982 358.44 86.3156C358.346 86.0227 358.19 85.8108 357.975 85.6796C357.768 85.5383 357.488 85.4675 357.134 85.4675H356.578V89.3442ZM356.578 83.7867H357.108C357.479 83.7867 357.759 83.7262 357.949 83.605C358.139 83.4737 358.268 83.2819 358.337 83.0296C358.414 82.7671 358.453 82.4491 358.453 82.0756C358.453 81.702 358.397 81.4043 358.285 81.1822C358.182 80.95 358.018 80.7834 357.794 80.6824C357.578 80.5815 357.302 80.5311 356.966 80.5311H356.578V83.7867Z" fill="#1F1F1F"/>
<path d="M364.911 91.2673C364.135 91.2673 363.518 91.0957 363.061 90.7525C362.613 90.4092 362.298 89.9348 362.117 89.329C361.936 88.7132 361.845 88.0015 361.845 87.1938V82.7873C361.845 81.9394 361.936 81.2125 362.117 80.6067C362.298 79.991 362.613 79.5164 363.061 79.1833C363.518 78.8502 364.135 78.6836 364.911 78.6836C365.661 78.6836 366.248 78.8299 366.67 79.1228C367.101 79.4155 367.403 79.8294 367.576 80.3644C367.757 80.8995 367.847 81.5203 367.847 82.227V83.2568H365.778V82.1058C365.778 81.8232 365.765 81.5607 365.739 81.3185C365.713 81.066 365.64 80.8642 365.519 80.7128C365.407 80.5512 365.208 80.4704 364.924 80.4704C364.639 80.4704 364.432 80.5512 364.303 80.7128C364.174 80.8742 364.092 81.0863 364.057 81.3488C364.023 81.6011 364.005 81.8837 364.005 82.1967V87.7693C364.005 88.1125 364.027 88.4154 364.07 88.6779C364.122 88.9302 364.212 89.1271 364.342 89.2685C364.48 89.3997 364.674 89.4653 364.924 89.4653C365.2 89.4653 365.394 89.3896 365.506 89.2381C365.627 89.0767 365.7 88.8646 365.726 88.6021C365.76 88.3396 365.778 88.062 365.778 87.7693V86.5731H367.847V87.5876C367.847 88.3044 367.761 88.9404 367.589 89.4956C367.416 90.0407 367.119 90.4747 366.696 90.7979C366.273 91.1107 365.678 91.2673 364.911 91.2673Z" fill="#1F1F1F"/>
<path d="M372.604 91.1007L372.785 78.835H375.049L376.342 86.5731L377.727 78.835H379.913L380.094 91.1007H378.541L378.373 82.7872L377.041 91.1007H375.709L374.311 82.7267L374.169 91.1007H372.604Z" fill="#1F1F1F"/>
<path d="M384.344 91.2673C383.697 91.2673 383.159 91.131 382.727 90.8585C382.296 90.5758 381.968 90.1567 381.744 89.6015C381.529 89.0363 381.404 88.3195 381.369 87.4513L383.206 87.0879C383.223 87.5926 383.266 88.0166 383.335 88.3599C383.413 88.693 383.525 88.9454 383.672 89.1171C383.827 89.2785 384.017 89.3593 384.241 89.3593C384.517 89.3593 384.702 89.2584 384.797 89.0564C384.901 88.8546 384.952 88.6224 384.952 88.3599C384.952 87.8451 384.844 87.4159 384.629 87.0728C384.422 86.7194 384.146 86.3661 383.801 86.0127L382.714 84.9073C382.326 84.5236 382.007 84.0896 381.757 83.605C381.516 83.1205 381.395 82.5247 381.395 81.8182C381.395 80.8087 381.645 80.0364 382.145 79.5013C382.654 78.9562 383.348 78.6836 384.228 78.6836C384.754 78.6836 385.185 78.7845 385.521 78.9865C385.858 79.1883 386.116 79.4609 386.298 79.8042C386.487 80.1373 386.617 80.5058 386.686 80.9096C386.763 81.3034 386.811 81.697 386.828 82.0907L385.004 82.4087C384.987 82.0352 384.957 81.707 384.913 81.4244C384.879 81.1418 384.801 80.9197 384.681 80.7582C384.568 80.5966 384.396 80.5158 384.163 80.5158C383.913 80.5158 383.728 80.627 383.607 80.8491C383.486 81.061 383.426 81.2982 383.426 81.5607C383.426 81.9949 383.508 82.3533 383.672 82.6359C383.844 82.9085 384.077 83.1961 384.37 83.499L385.431 84.5893C385.871 85.0335 386.246 85.5433 386.556 86.1188C386.875 86.6841 387.035 87.3856 387.035 88.2236C387.035 88.7991 386.923 89.3189 386.699 89.7833C386.474 90.2476 386.16 90.611 385.754 90.8735C385.358 91.1361 384.888 91.2673 384.344 91.2673Z" fill="#1F1F1F"/>
<path d="M388.288 91.1007V78.835H391.613C392.242 78.835 392.755 78.9763 393.152 79.2591C393.549 79.5316 393.842 79.9303 394.032 80.4553C394.23 80.9802 394.329 81.6162 394.329 82.3633C394.329 83.2415 394.2 83.928 393.941 84.4227C393.691 84.9174 393.346 85.2707 392.906 85.4828C392.466 85.6846 391.962 85.7855 391.393 85.7855H390.422V91.1007H388.288ZM390.422 84.0291H391.173C391.483 84.0291 391.72 83.9734 391.884 83.8624C392.057 83.7412 392.173 83.5545 392.233 83.3022C392.294 83.0498 392.324 82.7267 392.324 82.333C392.324 81.9595 392.298 81.6465 392.246 81.3942C392.203 81.1418 392.1 80.945 391.936 80.8036C391.772 80.6622 391.513 80.5916 391.16 80.5916H390.422V84.0291Z" fill="#1F1F1F"/>
<path d="M339.176 94.6735C338.853 94.6735 338.603 94.3381 338.65 93.9596L339.481 87.102H336.247C335.434 87.102 335.942 86.2908 335.961 86.2583C337.125 83.8464 338.871 80.277 341.181 75.5177C341.274 75.323 341.458 75.2041 341.643 75.2041C341.967 75.2041 342.216 75.5395 342.17 75.918L341.338 82.7756H344.582C344.951 82.7756 345.154 82.981 344.951 83.4895C341.911 89.6979 340.146 93.3215 339.638 94.3599C339.546 94.5546 339.37 94.6735 339.176 94.6735Z" fill="#1F1F1F"/>
<path d="M404.086 123.877H326.03V201.755H404.086V123.877Z" fill="#339C5E" fill-opacity="0.08"/>
<path d="M362.348 137.939H367.768M365.058 154.163L369.123 150.107M375.899 154.163C375.899 160.137 371.045 164.98 365.058 164.98C359.071 164.98 354.217 160.137 354.217 154.163C354.217 148.19 359.071 143.347 365.058 143.347C371.045 143.347 375.899 148.19 375.899 154.163Z" stroke="#16A34A" stroke-width="2" stroke-linecap="round" stroke-linejoin="round"/>
<path d="M358.889 182.441C358.534 182.441 358.213 182.39 357.927 182.286C357.649 182.182 357.402 182.048 357.185 181.883C356.968 181.71 356.786 181.52 356.639 181.312C356.492 181.096 356.374 180.879 356.288 180.663L357.315 180.144C357.48 180.482 357.688 180.754 357.94 180.962C358.2 181.169 358.517 181.273 358.889 181.273C359.193 181.273 359.484 181.204 359.761 181.066C360.039 180.927 360.268 180.698 360.451 180.378C360.633 180.049 360.724 179.62 360.724 179.093V173.2H361.999V179.547C361.999 180.023 361.912 180.443 361.739 180.806C361.574 181.161 361.344 181.464 361.049 181.715C360.763 181.957 360.433 182.139 360.06 182.26C359.687 182.381 359.297 182.441 358.889 182.441ZM364.189 182.286V173.2H365.464V182.286H364.189ZM369.632 182.286V174.368H366.783V173.2H373.769V174.368H370.92V182.286H369.632Z" fill="#171717"/>
<g filter="url(#filter0_d_116_3495)">
<path d="M340.665 224.469H288.628C281.443 224.469 275.619 230.281 275.619 237.449V289.367C275.619 296.536 281.443 302.347 288.628 302.347H340.665C347.85 302.347 353.675 296.536 353.675 289.367V237.449C353.675 230.281 347.85 224.469 340.665 224.469Z" fill="white"/>
<path d="M310.581 252.051L313.292 254.756L318.712 249.346M325.488 253.403C325.488 260.163 320.745 263.543 315.108 265.504C314.812 265.603 314.492 265.598 314.2 265.49C308.549 263.543 303.806 260.163 303.806 253.403V243.939C303.806 243.58 303.948 243.236 304.203 242.983C304.457 242.728 304.801 242.587 305.161 242.587C307.871 242.587 311.259 240.965 313.617 238.909C313.904 238.664 314.269 238.53 314.647 238.53C315.024 238.53 315.39 238.664 315.677 238.909C318.048 240.978 321.422 242.587 324.133 242.587C324.492 242.587 324.837 242.728 325.091 242.983C325.345 243.236 325.488 243.58 325.488 243.939V253.403Z" stroke="#16A34A" stroke-width="2" stroke-linecap="round" stroke-linejoin="round"/>
<path d="M303.227 282.878L299.493 273.792H300.859L303.929 281.398L307.013 273.792H308.379L304.645 282.878H303.227ZM310.917 283.033C310.145 283.033 309.543 282.86 309.109 282.514C308.684 282.159 308.471 281.671 308.471 281.048C308.471 280.381 308.693 279.875 309.135 279.529C309.586 279.174 310.21 278.997 311.008 278.997H312.751C312.699 278.444 312.552 278.028 312.309 277.751C312.075 277.465 311.719 277.322 311.242 277.322C310.904 277.322 310.609 277.392 310.358 277.53C310.115 277.668 309.911 277.885 309.746 278.179L308.654 277.764C308.81 277.47 309.005 277.21 309.239 276.985C309.473 276.751 309.755 276.57 310.085 276.44C310.414 276.302 310.8 276.232 311.242 276.232C311.858 276.232 312.37 276.354 312.777 276.596C313.185 276.837 313.489 277.188 313.688 277.647C313.896 278.106 313.996 278.672 313.987 279.347L313.974 282.878H312.83L312.791 282.047C312.6 282.359 312.348 282.6 312.036 282.774C311.724 282.947 311.351 283.033 310.917 283.033ZM311.021 281.982C311.377 281.982 311.685 281.909 311.945 281.761C312.205 281.606 312.409 281.393 312.556 281.125C312.704 280.848 312.777 280.533 312.777 280.178V279.97H311.346C310.748 279.97 310.327 280.066 310.085 280.256C309.842 280.438 309.72 280.692 309.72 281.022C309.72 281.325 309.833 281.562 310.059 281.736C310.293 281.899 310.614 281.982 311.021 281.982ZM317.885 283.033C317.382 283.033 316.944 282.93 316.571 282.722C316.198 282.514 315.908 282.19 315.7 281.748C315.492 281.307 315.387 280.736 315.387 280.035V276.388H316.623V279.711C316.623 280.29 316.688 280.736 316.819 281.048C316.957 281.359 317.148 281.575 317.391 281.697C317.634 281.818 317.907 281.883 318.211 281.891C318.74 281.891 319.152 281.705 319.446 281.333C319.741 280.962 319.889 280.438 319.889 279.763V276.388H321.112V282.878H319.967L319.915 281.93C319.698 282.286 319.416 282.558 319.069 282.748C318.731 282.938 318.336 283.033 317.885 283.033ZM322.836 282.878V273.792H324.072V282.878H322.836ZM328.294 283.033C327.644 283.033 327.141 282.87 326.785 282.54C326.43 282.203 326.252 281.723 326.252 281.1V277.452H325.146V276.388H326.252V274.363H327.488V276.388H329.335V277.452H327.488V280.918C327.488 281.237 327.566 281.484 327.722 281.658C327.887 281.822 328.121 281.904 328.424 281.904C328.511 281.904 328.606 281.886 328.711 281.852C328.815 281.818 328.94 281.749 329.088 281.645L329.556 282.605C329.331 282.753 329.114 282.86 328.906 282.93C328.706 282.999 328.502 283.033 328.294 283.033Z" fill="#171717"/>
</g>
<g filter="url(#filter1_d_116_3495)">
<path d="M418.722 302.347H366.684C359.499 302.347 353.675 308.158 353.675 315.327V367.245C353.675 374.413 359.499 380.224 366.684 380.224H418.722C425.906 380.224 431.731 374.413 431.731 367.245V315.327C431.731 308.158 425.906 302.347 418.722 302.347Z" fill="white"/>
<path d="M398.124 342.097V339.392C398.124 337.958 397.553 336.582 396.536 335.568C395.52 334.554 394.141 333.985 392.703 333.985H384.572C383.135 333.985 381.756 334.554 380.739 335.568C379.723 336.582 379.152 337.958 379.152 339.392V342.097M398.124 328.577L400.834 331.28L406.255 325.872M394.058 323.168C394.058 326.155 391.632 328.577 388.638 328.577C385.644 328.577 383.217 326.155 383.217 323.168C383.217 320.181 385.644 317.76 388.638 317.76C391.632 317.76 394.058 320.181 394.058 323.168Z" stroke="#16A34A" stroke-width="2" stroke-linecap="round" stroke-linejoin="round"/>
<path d="M371.018 360.755L367.284 351.669H368.65L371.72 359.275L374.804 351.669H376.17L372.436 360.755H371.018ZM379.502 360.911C378.869 360.911 378.309 360.768 377.824 360.482C377.338 360.189 376.956 359.786 376.679 359.275C376.401 358.764 376.262 358.177 376.262 357.51C376.262 356.843 376.401 356.256 376.679 355.745C376.956 355.234 377.338 354.836 377.824 354.551C378.318 354.257 378.882 354.109 379.515 354.109C380.113 354.109 380.638 354.26 381.089 354.564C381.54 354.857 381.891 355.283 382.143 355.836C382.403 356.381 382.533 357.025 382.533 357.77H377.524C377.568 358.411 377.78 358.912 378.162 359.275C378.552 359.631 379.029 359.808 379.593 359.808C380.027 359.808 380.386 359.709 380.673 359.509C380.967 359.301 381.197 359.042 381.362 358.73L382.429 359.223C382.255 359.561 382.03 359.859 381.752 360.119C381.475 360.371 381.145 360.565 380.764 360.703C380.391 360.841 379.97 360.911 379.502 360.911ZM377.602 356.796H381.206C381.18 356.451 381.084 356.16 380.92 355.927C380.764 355.685 380.56 355.498 380.308 355.368C380.066 355.239 379.792 355.174 379.489 355.174C379.194 355.174 378.908 355.239 378.63 355.368C378.353 355.49 378.118 355.672 377.928 355.914C377.745 356.155 377.637 356.451 377.602 356.796ZM383.754 360.755V354.265H384.99V355.433C385.25 355.026 385.584 354.728 385.991 354.538C386.408 354.338 386.841 354.239 387.292 354.239V355.407C386.902 355.407 386.529 355.467 386.174 355.589C385.827 355.701 385.541 355.893 385.315 356.16C385.098 356.42 384.99 356.775 384.99 357.225V360.755H383.754ZM388.367 360.755V354.265H389.603V360.755H388.367ZM388.992 352.889C388.792 352.889 388.619 352.816 388.472 352.669C388.324 352.513 388.25 352.336 388.25 352.137C388.25 351.929 388.324 351.755 388.472 351.617C388.619 351.47 388.792 351.397 388.992 351.397C389.2 351.397 389.373 351.47 389.512 351.617C389.66 351.755 389.733 351.929 389.733 352.137C389.733 352.336 389.66 352.513 389.512 352.669C389.373 352.816 389.2 352.889 388.992 352.889ZM392.065 360.755V355.291H390.907V354.265H392.065V353.551C392.065 352.868 392.23 352.352 392.559 352.007C392.889 351.651 393.388 351.475 394.055 351.475C394.255 351.475 394.472 351.509 394.706 351.578C394.94 351.638 395.179 351.726 395.421 351.838L394.966 352.786C394.784 352.7 394.624 352.638 394.485 352.604C394.355 352.56 394.242 352.539 394.147 352.539C393.86 352.539 393.648 352.635 393.509 352.824C393.37 353.006 393.301 353.292 393.301 353.681V354.265H395.096V355.291H393.301V360.755H392.065ZM397.099 363.507C396.909 363.507 396.696 363.473 396.462 363.403C396.236 363.333 396.002 363.242 395.759 363.13L396.215 362.118C396.406 362.204 396.57 362.269 396.709 362.313C396.857 362.356 396.974 362.377 397.06 362.377C397.277 362.377 397.459 362.317 397.607 362.196C397.763 362.074 397.889 361.905 397.984 361.69L398.387 360.716L395.551 354.265H396.865L398.973 359.301L401.054 354.265H402.381L399.298 361.56C399.133 361.957 398.96 362.304 398.778 362.598C398.595 362.892 398.37 363.117 398.101 363.273C397.841 363.429 397.507 363.507 397.099 363.507ZM406.807 360.755V351.669H408.082V360.755H406.807ZM410.402 360.755V351.669H413.212C414.079 351.669 414.847 351.864 415.515 352.253C416.191 352.635 416.72 353.167 417.102 353.85C417.484 354.533 417.674 355.321 417.674 356.212C417.674 357.095 417.484 357.878 417.102 358.561C416.72 359.245 416.191 359.782 415.515 360.171C414.847 360.56 414.079 360.755 413.212 360.755H410.402ZM411.677 359.561H413.212C413.654 359.561 414.066 359.478 414.448 359.314C414.83 359.141 415.163 358.904 415.45 358.6C415.745 358.289 415.97 357.93 416.126 357.523C416.291 357.116 416.373 356.679 416.373 356.212C416.373 355.745 416.291 355.308 416.126 354.901C415.97 354.494 415.745 354.14 415.45 353.837C415.163 353.525 414.83 353.287 414.448 353.123C414.066 352.949 413.654 352.863 413.212 352.863H411.677V359.561Z" fill="#171717"/>
</g>
</g>
<defs>
<filter id="filter0_d_116_3495" x="270.319" y="223.169" width="88.6562" height="88.4774" filterUnits="userSpaceOnUse" color-interpolation-filters="sRGB">
<feFlood flood-opacity="0" result="BackgroundImageFix"/>
<feColorMatrix in="SourceAlpha" type="matrix" values="0 0 0 0 0 0 0 0 0 0 0 0 0 0 0 0 0 0 127 0" result="hardAlpha"/>
<feOffset dy="4"/>
<feGaussianBlur stdDeviation="2.65"/>
<feComposite in2="hardAlpha" operator="out"/>
<feColorMatrix type="matrix" values="0 0 0 0 0.766564 0 0 0 0 0.693417 0 0 0 0 0.693417 0 0 0 0.25 0"/>
<feBlend mode="normal" in2="BackgroundImageFix" result="effect1_dropShadow_116_3495"/>
<feBlend mode="normal" in="SourceGraphic" in2="effect1_dropShadow_116_3495" result="shape"/>
</filter>
<filter id="filter1_d_116_3495" x="348.375" y="301.047" width="88.6562" height="88.4774" filterUnits="userSpaceOnUse" color-interpolation-filters="sRGB">
<feFlood flood-opacity="0" result="BackgroundImageFix"/>
<feColorMatrix in="SourceAlpha" type="matrix" values="0 0 0 0 0 0 0 0 0 0 0 0 0 0 0 0 0 0 127 0" result="hardAlpha"/>
<feOffset dy="4"/>
<feGaussianBlur stdDeviation="2.65"/>
<feComposite in2="hardAlpha" operator="out"/>
<feColorMatrix type="matrix" values="0 0 0 0 0.766564 0 0 0 0 0.693417 0 0 0 0 0.693417 0 0 0 0.25 0"/>
<feBlend mode="normal" in2="BackgroundImageFix" result="effect1_dropShadow_116_3495"/>
<feBlend mode="normal" in="SourceGraphic" in2="effect1_dropShadow_116_3495" result="shape"/>
</filter>
<clipPath id="clip0_116_3495">
<rect width="737" height="473" fill="white"/>
</clipPath>
</defs>
</svg>
